<svg width="149" height="33" viewBox="0 0 149 33" fill="none" xmlns="http://www.w3.org/2000/svg">
<path d="M23.7911 28.4518C23.5745 28.4527 23.3607 28.4015 23.1679 28.3027L16.2582 24.6853L9.34846 28.3027C9.12409 28.4207 8.87112 28.4734 8.6183 28.4548C8.36549 28.4361 8.12297 28.3469 7.91832 28.1973C7.71367 28.0477 7.5551 27.8437 7.46063 27.6085C7.36617 27.3732 7.33959 27.1162 7.38393 26.8666L8.73878 19.2388L3.15681 13.8194C2.98265 13.6456 2.85911 13.4277 2.79943 13.189C2.73976 12.9503 2.74621 12.6999 2.81809 12.4646C2.89662 12.2238 3.04107 12.0098 3.23505 11.847C3.42903 11.6841 3.66477 11.5789 3.91552 11.5433L11.6382 10.4188L15.0388 3.46838C15.1498 3.23932 15.323 3.04614 15.5386 2.91096C15.7543 2.77579 16.0037 2.7041 16.2582 2.7041C16.5127 2.7041 16.7621 2.77579 16.9777 2.91096C17.1934 3.04614 17.3666 3.23932 17.4775 3.46838L20.9189 10.4052L28.6415 11.5297C28.8922 11.5654 29.128 11.6706 29.322 11.8334C29.5159 11.9963 29.6604 12.2102 29.7389 12.451C29.8108 12.6863 29.8173 12.9368 29.7576 13.1755C29.6979 13.4141 29.5744 13.6321 29.4002 13.8059L23.8182 19.2253L25.1731 26.8531C25.2215 27.1071 25.1961 27.3696 25.1001 27.6097C25.0041 27.8497 24.8413 28.0573 24.6311 28.2079C24.3858 28.3798 24.0904 28.4656 23.7911 28.4518Z" fill="white"/>
<path d="M61.4164 11.7581C62.483 11.7581 63.4247 11.9664 64.2414 12.3831C65.0747 12.7997 65.7247 13.4414 66.1914 14.3081C66.658 15.1581 66.8914 16.2581 66.8914 17.6081V25.2581H63.7664V18.0081C63.7664 16.8247 63.508 15.9414 62.9914 15.3581C62.4747 14.7747 61.733 14.4831 60.7664 14.4831C60.083 14.4831 59.4747 14.6331 58.9413 14.9331C58.4247 15.2331 58.0164 15.6747 57.7164 16.2581C57.433 16.8414 57.2914 17.5831 57.2914 18.4831V25.2581H54.1664V18.0081C54.1664 16.8247 53.908 15.9414 53.3914 15.3581C52.8747 14.7747 52.133 14.4831 51.1664 14.4831C50.483 14.4831 49.8747 14.6331 49.3413 14.9331C48.8247 15.2331 48.4164 15.6747 48.1163 16.2581C47.833 16.8414 47.6914 17.5831 47.6914 18.4831V25.2581H44.5663V11.9081H47.5413V15.4581L47.0163 14.4081C47.4664 13.5414 48.1164 12.8831 48.9664 12.4331C49.833 11.9831 50.8163 11.7581 51.9164 11.7581C53.1664 11.7581 54.2497 12.0664 55.1664 12.6831C56.0997 13.2997 56.7164 14.2331 57.0164 15.4831L55.7914 15.0581C56.2247 14.0581 56.9414 13.2581 57.9414 12.6581C58.9414 12.0581 60.0997 11.7581 61.4164 11.7581ZM79.1097 25.2581V22.5581L78.9347 21.9831V17.2581C78.9347 16.3414 78.6597 15.6331 78.1097 15.1331C77.5597 14.6164 76.7264 14.3581 75.6097 14.3581C74.8597 14.3581 74.118 14.4747 73.3847 14.7081C72.668 14.9414 72.0597 15.2664 71.5597 15.6831L70.3347 13.4081C71.0514 12.8581 71.9014 12.4497 72.8847 12.1831C73.8847 11.8997 74.918 11.7581 75.9847 11.7581C77.918 11.7581 79.4097 12.2247 80.4597 13.1581C81.5264 14.0747 82.0597 15.4997 82.0597 17.4331V25.2581H79.1097ZM74.9097 25.4331C73.9097 25.4331 73.0347 25.2664 72.2847 24.9331C71.5347 24.5831 70.9514 24.1081 70.5347 23.5081C70.1347 22.8914 69.9347 22.1997 69.9347 21.4331C69.9347 20.6831 70.1097 20.0081 70.4597 19.4081C70.8264 18.8081 71.418 18.3331 72.2347 17.9831C73.0514 17.6331 74.1347 17.4581 75.4847 17.4581H79.3597V19.5331H75.7097C74.643 19.5331 73.9264 19.7081 73.5597 20.0581C73.193 20.3914 73.0097 20.8081 73.0097 21.3081C73.0097 21.8747 73.2347 22.3247 73.6847 22.6581C74.1347 22.9914 74.7597 23.1581 75.5597 23.1581C76.3264 23.1581 77.0097 22.9831 77.6097 22.6331C78.2264 22.2831 78.668 21.7664 78.9347 21.0831L79.4597 22.9581C79.1597 23.7414 78.618 24.3497 77.8347 24.7831C77.068 25.2164 76.093 25.4331 74.9097 25.4331ZM86.0703 25.2581V11.9081H89.1953V25.2581H86.0703ZM87.6453 9.70806C87.0619 9.70806 86.5786 9.52472 86.1953 9.15806C85.8286 8.79139 85.6453 8.34972 85.6453 7.83306C85.6453 7.29972 85.8286 6.85806 86.1953 6.50806C86.5786 6.14139 87.0619 5.95806 87.6453 5.95806C88.2286 5.95806 88.7036 6.13306 89.0703 6.48306C89.4536 6.81639 89.6453 7.24139 89.6453 7.75806C89.6453 8.30806 89.4619 8.77472 89.0953 9.15806C88.7286 9.52472 88.2453 9.70806 87.6453 9.70806ZM93.2968 25.2581V6.70806H96.4218V25.2581H93.2968ZM104.648 25.4331C103.532 25.4331 102.457 25.2914 101.423 25.0081C100.407 24.7081 99.5984 24.3497 98.9984 23.9331L100.198 21.5581C100.798 21.9414 101.515 22.2581 102.348 22.5081C103.182 22.7581 104.015 22.8831 104.848 22.8831C105.832 22.8831 106.54 22.7497 106.973 22.4831C107.423 22.2164 107.648 21.8581 107.648 21.4081C107.648 21.0414 107.498 20.7664 107.198 20.5831C106.898 20.3831 106.507 20.2331 106.023 20.1331C105.54 20.0331 104.998 19.9414 104.398 19.8581C103.815 19.7747 103.223 19.6664 102.623 19.5331C102.04 19.3831 101.507 19.1747 101.023 18.9081C100.54 18.6247 100.148 18.2497 99.8484 17.7831C99.5484 17.3164 99.3984 16.6997 99.3984 15.9331C99.3984 15.0831 99.64 14.3497 100.123 13.7331C100.607 13.0997 101.282 12.6164 102.148 12.2831C103.032 11.9331 104.073 11.7581 105.273 11.7581C106.173 11.7581 107.082 11.8581 107.998 12.0581C108.915 12.2581 109.673 12.5414 110.273 12.9081L109.073 15.2831C108.44 14.8997 107.798 14.6414 107.148 14.5081C106.515 14.3581 105.882 14.2831 105.248 14.2831C104.298 14.2831 103.59 14.4247 103.123 14.7081C102.673 14.9914 102.448 15.3497 102.448 15.7831C102.448 16.1831 102.598 16.4831 102.898 16.6831C103.198 16.8831 103.59 17.0414 104.073 17.1581C104.557 17.2747 105.09 17.3747 105.673 17.4581C106.273 17.5247 106.865 17.6331 107.448 17.7831C108.032 17.9331 108.565 18.1414 109.048 18.4081C109.548 18.6581 109.948 19.0164 110.248 19.4831C110.548 19.9497 110.698 20.5581 110.698 21.3081C110.698 22.1414 110.448 22.8664 109.948 23.4831C109.465 24.0997 108.773 24.5831 107.873 24.9331C106.973 25.2664 105.898 25.4331 104.648 25.4331ZM118.415 25.4331C116.948 25.4331 115.815 25.0581 115.015 24.3081C114.215 23.5414 113.815 22.4164 113.815 20.9331V8.95806H116.94V20.8581C116.94 21.4914 117.098 21.9831 117.415 22.3331C117.748 22.6831 118.206 22.8581 118.79 22.8581C119.49 22.8581 120.073 22.6747 120.54 22.3081L121.415 24.5331C121.048 24.8331 120.598 25.0581 120.065 25.2081C119.531 25.3581 118.981 25.4331 118.415 25.4331ZM111.615 14.5081V12.0081H120.515V14.5081H111.615ZM132.21 25.2581V22.5581L132.035 21.9831V17.2581C132.035 16.3414 131.76 15.6331 131.21 15.1331C130.66 14.6164 129.827 14.3581 128.71 14.3581C127.96 14.3581 127.219 14.4747 126.485 14.7081C125.769 14.9414 125.16 15.2664 124.66 15.6831L123.435 13.4081C124.152 12.8581 125.002 12.4497 125.985 12.1831C126.985 11.8997 128.019 11.7581 129.085 11.7581C131.019 11.7581 132.51 12.2247 133.56 13.1581C134.627 14.0747 135.16 15.4997 135.16 17.4331V25.2581H132.21ZM128.01 25.4331C127.01 25.4331 126.135 25.2664 125.385 24.9331C124.635 24.5831 124.052 24.1081 123.635 23.5081C123.235 22.8914 123.035 22.1997 123.035 21.4331C123.035 20.6831 123.21 20.0081 123.56 19.4081C123.927 18.8081 124.519 18.3331 125.335 17.9831C126.152 17.6331 127.235 17.4581 128.585 17.4581H132.46V19.5331H128.81C127.744 19.5331 127.027 19.7081 126.66 20.0581C126.294 20.3914 126.11 20.8081 126.11 21.3081C126.11 21.8747 126.335 22.3247 126.785 22.6581C127.235 22.9914 127.86 23.1581 128.66 23.1581C129.427 23.1581 130.11 22.9831 130.71 22.6331C131.327 22.2831 131.769 21.7664 132.035 21.0831L132.56 22.9581C132.26 23.7414 131.719 24.3497 130.935 24.7831C130.169 25.2164 129.194 25.4331 128.01 25.4331ZM139.171 25.2581V11.9081H142.146V15.5831L141.796 14.5081C142.196 13.6081 142.821 12.9247 143.671 12.4581C144.538 11.9914 145.613 11.7581 146.896 11.7581V14.7331C146.763 14.6997 146.638 14.6831 146.521 14.6831C146.404 14.6664 146.288 14.6581 146.171 14.6581C144.988 14.6581 144.046 15.0081 143.346 15.7081C142.646 16.3914 142.296 17.4164 142.296 18.7831V25.2581H139.171Z" fill="white"/>
</svg>
