<svg width="149" height="33" viewBox="0 0 149 33" fill="none" xmlns="http://www.w3.org/2000/svg">
<path d="M23.7911 28.4518C23.5745 28.4527 23.3607 28.4016 23.1679 28.3028L16.2582 24.6854L9.34846 28.3028C9.12409 28.4208 8.87112 28.4735 8.6183 28.4548C8.36549 28.4362 8.12297 28.347 7.91832 28.1974C7.71367 28.0478 7.5551 27.8438 7.46063 27.6085C7.36617 27.3733 7.33959 27.1163 7.38393 26.8667L8.73878 19.2389L3.15681 13.8195C2.98265 13.6457 2.85911 13.4277 2.79943 13.1891C2.73976 12.9504 2.74621 12.6999 2.81809 12.4646C2.89662 12.2238 3.04107 12.0099 3.23505 11.847C3.42903 11.6842 3.66477 11.579 3.91552 11.5433L11.6382 10.4188L15.0388 3.46844C15.1498 3.23937 15.323 3.04619 15.5386 2.91102C15.7543 2.77585 16.0037 2.70415 16.2582 2.70415C16.5127 2.70415 16.7621 2.77585 16.9777 2.91102C17.1934 3.04619 17.3666 3.23937 17.4775 3.46844L20.9189 10.4053L28.6415 11.5298C28.8922 11.5654 29.128 11.6706 29.322 11.8335C29.5159 11.9963 29.6604 12.2103 29.7389 12.4511C29.8108 12.6864 29.8173 12.9368 29.7576 13.1755C29.6979 13.4142 29.5744 13.6321 29.4002 13.8059L23.8182 19.2253L25.1731 26.8531C25.2215 27.1071 25.1961 27.3697 25.1001 27.6097C25.0041 27.8498 24.8413 28.0574 24.6311 28.208C24.3858 28.3799 24.0904 28.4656 23.7911 28.4518V28.4518Z" fill="#231F20"/>
<path d="M61.4164 11.7582C62.483 11.7582 63.4247 11.9665 64.2414 12.3832C65.0747 12.7998 65.7247 13.4415 66.1914 14.3082C66.658 15.1582 66.8914 16.2582 66.8914 17.6082V25.2582H63.7664V18.0082C63.7664 16.8248 63.508 15.9415 62.9914 15.3582C62.4747 14.7748 61.733 14.4832 60.7664 14.4832C60.083 14.4832 59.4747 14.6332 58.9413 14.9332C58.4247 15.2332 58.0164 15.6748 57.7164 16.2582C57.433 16.8415 57.2914 17.5832 57.2914 18.4832V25.2582H54.1664V18.0082C54.1664 16.8248 53.908 15.9415 53.3914 15.3582C52.8747 14.7748 52.133 14.4832 51.1664 14.4832C50.483 14.4832 49.8747 14.6332 49.3413 14.9332C48.8247 15.2332 48.4164 15.6748 48.1163 16.2582C47.833 16.8415 47.6914 17.5832 47.6914 18.4832V25.2582H44.5663V11.9082H47.5413V15.4582L47.0163 14.4082C47.4664 13.5415 48.1164 12.8832 48.9664 12.4332C49.833 11.9832 50.8163 11.7582 51.9164 11.7582C53.1664 11.7582 54.2497 12.0665 55.1664 12.6832C56.0997 13.2998 56.7164 14.2332 57.0164 15.4832L55.7914 15.0582C56.2247 14.0582 56.9414 13.2582 57.9414 12.6582C58.9414 12.0582 60.0997 11.7582 61.4164 11.7582ZM79.1097 25.2582V22.5582L78.9347 21.9832V17.2582C78.9347 16.3415 78.6597 15.6332 78.1097 15.1332C77.5597 14.6165 76.7264 14.3582 75.6097 14.3582C74.8597 14.3582 74.118 14.4748 73.3847 14.7082C72.668 14.9415 72.0597 15.2665 71.5597 15.6832L70.3347 13.4082C71.0514 12.8582 71.9014 12.4498 72.8847 12.1832C73.8847 11.8998 74.918 11.7582 75.9847 11.7582C77.918 11.7582 79.4097 12.2248 80.4597 13.1582C81.5264 14.0748 82.0597 15.4998 82.0597 17.4332V25.2582H79.1097ZM74.9097 25.4332C73.9097 25.4332 73.0347 25.2665 72.2847 24.9332C71.5347 24.5832 70.9514 24.1082 70.5347 23.5082C70.1347 22.8915 69.9347 22.1998 69.9347 21.4332C69.9347 20.6832 70.1097 20.0082 70.4597 19.4082C70.8264 18.8082 71.418 18.3332 72.2347 17.9832C73.0514 17.6332 74.1347 17.4582 75.4847 17.4582H79.3597V19.5332H75.7097C74.643 19.5332 73.9264 19.7082 73.5597 20.0582C73.193 20.3915 73.0097 20.8082 73.0097 21.3082C73.0097 21.8748 73.2347 22.3248 73.6847 22.6582C74.1347 22.9915 74.7597 23.1582 75.5597 23.1582C76.3264 23.1582 77.0097 22.9832 77.6097 22.6332C78.2264 22.2832 78.668 21.7665 78.9347 21.0832L79.4597 22.9582C79.1597 23.7415 78.618 24.3498 77.8347 24.7832C77.068 25.2165 76.093 25.4332 74.9097 25.4332ZM86.0703 25.2582V11.9082H89.1953V25.2582H86.0703ZM87.6453 9.70818C87.0619 9.70818 86.5786 9.52484 86.1953 9.15818C85.8286 8.79151 85.6453 8.34985 85.6453 7.83318C85.6453 7.29984 85.8286 6.85818 86.1953 6.50818C86.5786 6.14151 87.0619 5.95818 87.6453 5.95818C88.2286 5.95818 88.7036 6.13318 89.0703 6.48318C89.4536 6.81651 89.6453 7.24151 89.6453 7.75818C89.6453 8.30818 89.4619 8.77484 89.0953 9.15818C88.7286 9.52484 88.2453 9.70818 87.6453 9.70818ZM93.2968 25.2582V6.70818H96.4218V25.2582H93.2968ZM104.648 25.4332C103.532 25.4332 102.457 25.2915 101.423 25.0082C100.407 24.7082 99.5984 24.3498 98.9984 23.9332L100.198 21.5582C100.798 21.9415 101.515 22.2582 102.348 22.5082C103.182 22.7582 104.015 22.8832 104.848 22.8832C105.832 22.8832 106.54 22.7498 106.973 22.4832C107.423 22.2165 107.648 21.8582 107.648 21.4082C107.648 21.0415 107.498 20.7665 107.198 20.5832C106.898 20.3832 106.507 20.2332 106.023 20.1332C105.54 20.0332 104.998 19.9415 104.398 19.8582C103.815 19.7748 103.223 19.6665 102.623 19.5332C102.04 19.3832 101.507 19.1748 101.023 18.9082C100.54 18.6248 100.148 18.2498 99.8484 17.7832C99.5484 17.3165 99.3984 16.6998 99.3984 15.9332C99.3984 15.0832 99.64 14.3498 100.123 13.7332C100.607 13.0998 101.282 12.6165 102.148 12.2832C103.032 11.9332 104.073 11.7582 105.273 11.7582C106.173 11.7582 107.082 11.8582 107.998 12.0582C108.915 12.2582 109.673 12.5415 110.273 12.9082L109.073 15.2832C108.44 14.8998 107.798 14.6415 107.148 14.5082C106.515 14.3582 105.882 14.2832 105.248 14.2832C104.298 14.2832 103.59 14.4248 103.123 14.7082C102.673 14.9915 102.448 15.3498 102.448 15.7832C102.448 16.1832 102.598 16.4832 102.898 16.6832C103.198 16.8832 103.59 17.0415 104.073 17.1582C104.557 17.2748 105.09 17.3748 105.673 17.4582C106.273 17.5248 106.865 17.6332 107.448 17.7832C108.032 17.9332 108.565 18.1415 109.048 18.4082C109.548 18.6582 109.948 19.0165 110.248 19.4832C110.548 19.9498 110.698 20.5582 110.698 21.3082C110.698 22.1415 110.448 22.8665 109.948 23.4832C109.465 24.0998 108.773 24.5832 107.873 24.9332C106.973 25.2665 105.898 25.4332 104.648 25.4332ZM118.415 25.4332C116.948 25.4332 115.815 25.0582 115.015 24.3082C114.215 23.5415 113.815 22.4165 113.815 20.9332V8.95818H116.94V20.8582C116.94 21.4915 117.098 21.9832 117.415 22.3332C117.748 22.6832 118.206 22.8582 118.79 22.8582C119.49 22.8582 120.073 22.6748 120.54 22.3082L121.415 24.5332C121.048 24.8332 120.598 25.0582 120.065 25.2082C119.531 25.3582 118.981 25.4332 118.415 25.4332ZM111.615 14.5082V12.0082H120.515V14.5082H111.615ZM132.21 25.2582V22.5582L132.035 21.9832V17.2582C132.035 16.3415 131.76 15.6332 131.21 15.1332C130.66 14.6165 129.827 14.3582 128.71 14.3582C127.96 14.3582 127.219 14.4748 126.485 14.7082C125.769 14.9415 125.16 15.2665 124.66 15.6832L123.435 13.4082C124.152 12.8582 125.002 12.4498 125.985 12.1832C126.985 11.8998 128.019 11.7582 129.085 11.7582C131.019 11.7582 132.51 12.2248 133.56 13.1582C134.627 14.0748 135.16 15.4998 135.16 17.4332V25.2582H132.21ZM128.01 25.4332C127.01 25.4332 126.135 25.2665 125.385 24.9332C124.635 24.5832 124.052 24.1082 123.635 23.5082C123.235 22.8915 123.035 22.1998 123.035 21.4332C123.035 20.6832 123.21 20.0082 123.56 19.4082C123.927 18.8082 124.519 18.3332 125.335 17.9832C126.152 17.6332 127.235 17.4582 128.585 17.4582H132.46V19.5332H128.81C127.744 19.5332 127.027 19.7082 126.66 20.0582C126.294 20.3915 126.11 20.8082 126.11 21.3082C126.11 21.8748 126.335 22.3248 126.785 22.6582C127.235 22.9915 127.86 23.1582 128.66 23.1582C129.427 23.1582 130.11 22.9832 130.71 22.6332C131.327 22.2832 131.769 21.7665 132.035 21.0832L132.56 22.9582C132.26 23.7415 131.719 24.3498 130.935 24.7832C130.169 25.2165 129.194 25.4332 128.01 25.4332ZM139.171 25.2582V11.9082H142.146V15.5832L141.796 14.5082C142.196 13.6082 142.821 12.9248 143.671 12.4582C144.538 11.9915 145.613 11.7582 146.896 11.7582V14.7332C146.763 14.6998 146.638 14.6832 146.521 14.6832C146.404 14.6665 146.288 14.6582 146.171 14.6582C144.988 14.6582 144.046 15.0082 143.346 15.7082C142.646 16.3915 142.296 17.4165 142.296 18.7832V25.2582H139.171Z" fill="#302C4A"/>
</svg>
